<svg width="500" height="500" viewBox="0 0 500 500" fill="none" xmlns="http://www.w3.org/2000/svg">
<g filter="url(#filter0_d_179_63)">
<rect x="40" y="30" width="420" height="420" rx="30" fill="white"/>
</g>
<path fill-rule="evenodd" clip-rule="evenodd" d="M250 435C357.696 435 445 347.696 445 240C445 132.304 357.696 45 250 45C142.304 45 55 132.304 55 240C55 347.696 142.304 435 250 435ZM250 275.88C269.816 275.88 285.88 259.816 285.88 240C285.88 220.184 269.816 204.12 250 204.12C230.184 204.12 214.12 220.184 214.12 240C214.12 259.816 230.184 275.88 250 275.88Z" fill="#EBEBEB"/>
<circle cx="249.5" cy="239.5" r="22.5" fill="#EBEBEB"/>
<defs>
<filter id="filter0_d_179_63" x="0" y="0" width="500" height="500" filterUnits="userSpaceOnUse" color-interpolation-filters="sRGB">
<feFlood flood-opacity="0" result="BackgroundImageFix"/>
<feColorMatrix in="SourceAlpha" type="matrix" values="0 0 0 0 0 0 0 0 0 0 0 0 0 0 0 0 0 0 127 0" result="hardAlpha"/>
<feOffset dy="10"/>
<feGaussianBlur stdDeviation="20"/>
<feComposite in2="hardAlpha" operator="out"/>
<feColorMatrix type="matrix" values="0 0 0 0 0 0 0 0 0 0 0 0 0 0 0 0 0 0 1 0"/>
<feBlend mode="normal" in2="BackgroundImageFix" result="effect1_dropShadow_179_63"/>
<feBlend mode="normal" in="SourceGraphic" in2="effect1_dropShadow_179_63" result="shape"/>
</filter>
</defs>
</svg>
