<svg width="420" height="420" viewBox="0 0 420 420" fill="none" xmlns="http://www.w3.org/2000/svg">
<rect width="420" height="420" rx="30" fill="white"/>
<path fill-rule="evenodd" clip-rule="evenodd" d="M210 405C317.696 405 405 317.696 405 210C405 102.304 317.696 15 210 15C102.304 15 15 102.304 15 210C15 317.696 102.304 405 210 405ZM210 245.88C229.816 245.88 245.88 229.816 245.88 210C245.88 190.184 229.816 174.12 210 174.12C190.184 174.12 174.12 190.184 174.12 210C174.12 229.816 190.184 245.88 210 245.88Z" fill="#EBEBEB"/>
<circle cx="209.5" cy="209.5" r="22.5" fill="#EBEBEB"/>
</svg>
