<svg width="256" height="256" viewBox="0 0 256 256" fill="none" xmlns="http://www.w3.org/2000/svg">
<path fill-rule="evenodd" clip-rule="evenodd" d="M118 40.5L123 35.5H132.5C131.5 35.5 137 41 137 41V122.5L131.5 127H123L118 122.5V40.5Z" fill="#CECECE"/>
<path fill-rule="evenodd" clip-rule="evenodd" d="M89.887 58.5472C89.887 58.5472 89.411 63.3392 88.457 64.7772C67.484 78.1972 55.09 100.243 54.137 128.041C55.567 169.259 88.457 202.329 128.974 202.329C169.492 202.329 202.382 169.259 201.906 127.083C202.382 101.202 188.559 78.1972 169.015 64.7772C167.585 61.9022 166.632 59.0262 166.632 59.0262L171.875 50.8782C171.875 50.8782 173.782 48.9612 177.118 49.4402C203.336 66.6942 220.496 95.4502 220.496 128.041C220.496 178.845 179.026 220.062 128.498 220.062C77.97 220.062 36.023 178.845 36.5 128.042C36.5 94.9722 54.137 66.2152 79.4 48.4822C82.26 46.5652 85.12 51.8372 85.12 51.8372L89.887 58.5472V58.5472Z" fill="#CECECE"/>
</svg>
