<svg width="29" height="28" viewBox="0 0 29 28" fill="none" xmlns="http://www.w3.org/2000/svg">
<path d="M28.0388 10.0689L19.3606 8.80763L15.4812 0.942884C15.3752 0.727552 15.2009 0.553235 14.9856 0.447278C14.4456 0.180677 13.7893 0.402845 13.5193 0.942884L9.63989 8.80763L0.961665 10.0689C0.722408 10.103 0.503658 10.2158 0.336177 10.3867C0.133702 10.5948 0.0221297 10.8748 0.0259751 11.1651C0.0298205 11.4555 0.148769 11.7324 0.356685 11.9351L6.63549 18.0567L5.1521 26.7007C5.11731 26.9018 5.13956 27.1086 5.21633 27.2977C5.29309 27.4867 5.4213 27.6505 5.58641 27.7704C5.75152 27.8904 5.94693 27.9616 6.15048 27.9761C6.35403 27.9906 6.55758 27.9478 6.73803 27.8526L14.5002 23.7715L22.2624 27.8526C22.4744 27.9653 22.7205 28.0029 22.9563 27.9619C23.551 27.8594 23.9509 27.2954 23.8484 26.7007L22.365 18.0567L28.6438 11.9351C28.8147 11.7676 28.9275 11.5488 28.9617 11.3096C29.054 10.7114 28.637 10.1577 28.0388 10.0689V10.0689Z" fill="#FFC700"/>
</svg>
